<?xml version="1.0" encoding="utf-8"?>
<!-- Generator: Adobe Illustrator 21.0.2, SVG Export Plug-In . SVG Version: 6.00 Build 0)  -->
<svg version="1.1" id="图层_1" xmlns="http://www.w3.org/2000/svg" xmlns:xlink="http://www.w3.org/1999/xlink" x="0px" y="0px"
	 viewBox="0 0 200 200" style="enable-background:new 0 0 200 200;" xml:space="preserve">
<style type="text/css">
	.st0{fill:#FF6464;}
	.st1{fill:#FFB6B6;}
	.st2{fill:#0080FF;}
	.st3{fill:#76C1FF;}
	.st4{fill:#FFFFFF;stroke:#0080FF;stroke-width:6;stroke-linecap:round;stroke-linejoin:round;stroke-miterlimit:10;}
	.st5{fill:#FFFFFF;stroke:#0080FF;stroke-width:6;stroke-miterlimit:10;}
</style>
<path class="st2" d="M33.5,133.3h114c3,0,5.5-2.7,5.5-6l0-54.7c0-3.3-2.5-6-5.5-6h-114c-3,0-5.5,2.7-5.5,6v54.7
	C28,130.7,30.4,133.3,33.5,133.3z M183.3,83.3V66.7c0-9.2-7.5-16.7-16.7-16.7L25,50c-9.2,0-16.7,7.5-16.7,16.7v66.7
	c0,9.2,7.5,16.7,16.7,16.7h141.7c9.2,0,16.7-7.5,16.7-16.7v-16.7c4.6,0,8.3-3.8,8.3-8.3V91.7C191.7,87.1,187.9,83.3,183.3,83.3z
	 M175,133.3c0,4.6-3.8,8.3-8.3,8.3l-141.7,0c-4.6,0-8.3-3.8-8.3-8.3l0-66.7c0-4.6,3.8-8.3,8.3-8.3h141.7c4.6,0,8.3,3.8,8.3,8.3
	V133.3z"/>
</svg>
