<?xml version="1.0" encoding="utf-8"?>
<!-- Generator: Adobe Illustrator 21.0.2, SVG Export Plug-In . SVG Version: 6.00 Build 0)  -->
<svg version="1.1" id="图层_1" xmlns="http://www.w3.org/2000/svg" xmlns:xlink="http://www.w3.org/1999/xlink" x="0px" y="0px"
	 viewBox="0 0 200 200" style="enable-background:new 0 0 200 200;" xml:space="preserve">
<style type="text/css">
	.st0{fill:#FF6464;}
	.st1{fill:#0080FF;}
</style>
<path class="st1" d="M28.7,133.3h7.6c2.1,0,3.7-1.7,3.7-3.7l0-59.2c0-2.1-1.7-3.7-3.7-3.7h-7.6c-2.1,0-3.7,1.7-3.7,3.7v59.2
	C25,131.7,26.7,133.3,28.7,133.3z M183.3,83.3V66.7c0-9.2-7.5-16.7-16.7-16.7L25,50c-9.2,0-16.7,7.5-16.7,16.7v66.7
	c0,9.2,7.5,16.7,16.7,16.7h141.7c9.2,0,16.7-7.5,16.7-16.7v-16.7c4.6,0,8.3-3.8,8.3-8.3V91.7C191.7,87.1,187.9,83.3,183.3,83.3z
	 M175,133.3c0,4.6-3.8,8.3-8.3,8.3l-141.7,0c-4.6,0-8.3-3.8-8.3-8.3l0-66.7c0-4.6,3.8-8.3,8.3-8.3h141.7c4.6,0,8.3,3.8,8.3,8.3
	V133.3z"/>
</svg>
