<?xml version="1.0" encoding="utf-8"?>
<!-- Generator: Adobe Illustrator 21.0.2, SVG Export Plug-In . SVG Version: 6.00 Build 0)  -->
<svg version="1.1" id="图层_1" xmlns="http://www.w3.org/2000/svg" xmlns:xlink="http://www.w3.org/1999/xlink" x="0px" y="0px"
	 viewBox="0 0 200 200" style="enable-background:new 0 0 200 200;" xml:space="preserve">
<style type="text/css">
	.st0{fill:#FF6464;}
	.st1{fill:#0080FF;}
</style>
<path class="st1" d="M183.3,83.3V66.7c0-9.2-7.5-16.7-16.7-16.7L25,50c-9.2,0-16.7,7.5-16.7,16.7v66.7c0,9.2,7.5,16.7,16.7,16.7
	h141.7c9.2,0,16.7-7.5,16.7-16.7v-16.7c4.6,0,8.3-3.8,8.3-8.3V91.7C191.7,87.1,187.9,83.3,183.3,83.3z M175,133.3
	c0,4.6-3.8,8.3-8.3,8.3l-141.7,0c-4.6,0-8.3-3.8-8.3-8.3l0-66.7c0-4.6,3.8-8.3,8.3-8.3h141.7c4.6,0,8.3,3.8,8.3,8.3V133.3z"/>
<g>
	<path class="st1" d="M163,71.6v54.7c0,3.3-2.7,6-6,6H33c-3.3,0-6-2.7-6-6V80.7c5.9,12.8,17.4,22.4,36.7,22.4h8.7v6.5
		c0,6.6,5.4,12,12,12H104c0.3,4.2,3.8,7.6,8.1,7.6c4.5,0,8.2-3.7,8.2-8.2v-7.6h18c2.8,0,5-2.2,5-5c0-2.8-2.2-5-5-5h-18v-9h18
		c2.8,0,5-2.2,5-5c0-2.8-2.2-5-5-5h-18v-5.9c0-2.2-0.9-4.3-2.4-5.8c-1.5-1.5-3.5-2.4-5.8-2.4c-4.1,0-7.5,3.1-8.1,7.1H84.3
		c-6.6,0-12,5.4-12,12v3.7h-8.7c-22,0-28.9-15.3-30.9-27.4c0.1,0,0.1,0,0.2,0H157C160.3,65.7,163,68.3,163,71.6z"/>
</g>
</svg>
