<?xml version="1.0" encoding="utf-8"?>
<!-- Generator: Adobe Illustrator 21.0.2, SVG Export Plug-In . SVG Version: 6.00 Build 0)  -->
<svg version="1.1" id="图层_1" xmlns="http://www.w3.org/2000/svg" xmlns:xlink="http://www.w3.org/1999/xlink" x="0px" y="0px"
	 viewBox="0 0 200 200" style="enable-background:new 0 0 200 200;" xml:space="preserve">
<style type="text/css">
	.st0{fill:#FF6464;}
	.st1{fill:#FFB6B6;}
	.st2{fill:#0080FF;}
	.st3{fill:#76C1FF;}
	.st4{fill:#FFFFFF;stroke:#0080FF;stroke-width:6;stroke-linecap:round;stroke-linejoin:round;stroke-miterlimit:10;}
	.st5{fill:#FFFFFF;stroke:#0080FF;stroke-width:6;stroke-miterlimit:10;}
</style>
<path class="st3" d="M34,133.3H158c3.3,0,6-2.7,6-6l0-54.7c0-3.3-2.7-6-6-6H34c-3.3,0-6,2.7-6,6v54.7C28,130.7,30.7,133.3,34,133.3z
	 M183.3,83.3V66.7c0-9.2-7.5-16.7-16.7-16.7L25,50c-9.2,0-16.7,7.5-16.7,16.7v66.7c0,9.2,7.5,16.7,16.7,16.7h141.7
	c9.2,0,16.7-7.5,16.7-16.7v-16.7c4.6,0,8.3-3.8,8.3-8.3V91.7C191.7,87.1,187.9,83.3,183.3,83.3z M175,133.3c0,4.6-3.8,8.3-8.3,8.3
	l-141.7,0c-4.6,0-8.3-3.8-8.3-8.3l0-66.7c0-4.6,3.8-8.3,8.3-8.3h141.7c4.6,0,8.3,3.8,8.3,8.3V133.3z"/>
<g>
	<path class="st5" d="M99.5,124.9L99.5,124.9c-5.5,0-9.9-4.5-9.9-9.9v-3.4c0-4.5,0.9-8,2.7-10.6c1.8-2.6,5.8-6.2,11.9-11
		c9.4-7.2,14.1-14.8,14.1-22.9c0-6.1-1.8-10.9-5.5-14.5c-3.7-3.6-8.4-5.4-14.3-5.4c-11.3,0-18.7,6.5-22.3,19.4
		c-1.4,4.9-6.3,8-11.3,7.1l-2.3-0.4c-5.8-1-9.4-6.8-7.8-12.5c2.5-9.1,7.1-16.6,13.7-22.4c9.1-8,20-12,32.7-12
		c12.6,0,23.1,3.8,31.3,11.3c8.3,7.5,12.4,16.8,12.4,28c0,5.6-1.1,10.8-3.4,15.8c-2.3,5-4.9,8.9-7.8,11.6
		c-2.9,2.7-9.1,7.6-18.4,14.4c-2.6,1.9-4.3,3.8-5.1,5.6c-0.3,0.7-0.5,1.8-0.7,3.2C108.8,121.2,104.5,124.9,99.5,124.9z M112.9,148.9
		v4.9c0,5.5-4.5,9.9-9.9,9.9h-3.4c-5.5,0-9.9-4.5-9.9-9.9v-4.9c0-5.5,4.5-9.9,9.9-9.9h3.4C108.4,139,112.9,143.4,112.9,148.9z"/>
</g>
</svg>
